<?xml version="1.0" encoding="iso-8859-1"?>
<!-- Uploaded to: SVG Repo, www.svgrepo.com, Generator: SVG Repo Mixer Tools -->
<svg fill="#000000" height="800px" width="800px" version="1.1" id="Layer_1" xmlns="http://www.w3.org/2000/svg" xmlns:xlink="http://www.w3.org/1999/xlink" 
	 viewBox="0 0 503.607 503.607" xml:space="preserve">
<g>
	<g>
		<path d="M495.213,201.443h-16.787v-33.574c9.233,0,16.787-7.554,16.787-16.787v-16.787c0-9.233-7.554-16.787-16.787-16.787
			h-15.948c-9.233,0-16.787,7.554-16.787,16.787v16.787c0,9.233,7.554,16.787,16.787,16.787v33.574h-16.787
			c-5.036,0-8.393,3.357-8.393,8.393h-16.787v-50.361c0-1.679,0-2.518-0.839-3.357l-31.056-62.111
			c-8.393-16.787-24.341-26.859-42.807-26.859h-43.646c-5.036,0-8.393,3.357-8.393,8.393v41.967c0,9.233,7.554,16.787,16.787,16.787
			h16.787v58.754h-41.128l-0.839-3.357c-1.679-4.197-6.715-6.715-10.911-5.036c-3.357,1.679-5.875,5.036-5.875,8.393h-15.948
			l-0.839-3.357c-1.679-4.197-6.715-6.715-10.911-5.036c-3.357,1.679-5.875,5.036-5.875,8.393h-16.787v-58.754h33.574
			c9.233,0,16.787-7.554,16.787-16.787V75.541c0-5.036-3.357-8.393-8.393-8.393H109.115c-5.036,0-8.393,3.357-8.393,8.393v41.967
			c0,9.233,7.554,16.787,16.787,16.787h33.574v33.574c-21.823,0-42.807,9.233-57.915,25.18H25.18
			c-14.269,0-25.18,10.911-25.18,25.18v33.574c0,14.269,10.911,25.18,25.18,25.18h31.056c-1.679,8.393-3.357,16.787-4.197,25.18
			h40.289c5.036,0,8.393,3.357,8.393,8.393s-3.357,8.393-8.393,8.393H50.361c0,4.197,0,8.393,0,12.59v4.197h75.541
			c5.036,0,8.393,3.357,8.393,8.393c0,5.036-3.357,8.393-8.393,8.393H50.361v17.626C21.823,374.348,0,398.689,0,428.066
			c0,5.036,3.357,8.393,8.393,8.393h310.557c5.036,0,8.393-3.357,8.393-8.393c0-29.377-21.823-53.718-50.361-57.915v-67.987
			c0-3.357-2.518-6.715-5.875-8.393c-11.751-3.357-21.823-9.233-30.216-16.787h26.859l0.839,3.357
			c1.679,3.357,4.197,5.036,7.554,5.036c0.839,0,1.679,0,3.357-0.839c3.357-1.679,5.036-4.197,5.036-7.554h15.948l0.839,3.357
			c1.679,3.357,4.197,5.036,7.554,5.036c0.839,0,1.679,0,3.357-0.839c3.357-1.679,5.036-4.197,5.036-7.554h8.393v8.393
			c0,14.269,10.911,25.18,25.18,25.18h41.967c14.269,0,25.18-10.911,25.18-25.18v-25.18h16.787c0,5.036,3.357,8.393,8.393,8.393
			h16.787v92.328c-9.233,0-16.787,7.554-16.787,16.787v16.787c0,9.233,7.554,16.787,16.787,16.787h18.466
			c9.233,0,16.787-7.554,16.787-16.787v-16.787c0-9.233-7.554-16.787-16.787-16.787V268.59h16.787c5.036,0,8.393-3.357,8.393-8.393
			v-50.361C503.607,205.639,500.249,201.443,495.213,201.443z M79.738,212.354c-0.839,3.357-2.518,5.875-4.197,9.233
			c-0.839,1.679-0.839,2.518-1.679,4.197c-0.839,2.518-2.518,5.036-3.357,8.393c-0.839,1.679-0.839,3.357-1.679,4.197
			c-0.839,2.518-1.679,5.036-2.518,7.554c-0.839,1.679-0.839,3.357-1.679,5.036c-0.839,2.518-1.679,5.036-2.518,7.554
			c0,0.839-0.839,1.679-0.839,2.518H25.18c-5.036,0-8.393-3.357-8.393-8.393v-33.574c0-5.036,3.357-8.393,8.393-8.393h56.236
			C80.577,210.675,80.577,211.515,79.738,212.354z M117.508,117.508V83.934h134.295v33.574h-41.967h-50.361H117.508z
			 M268.59,386.098c20.144,0,36.931,14.269,41.128,33.574H17.626c4.197-19.305,20.984-33.574,41.128-33.574H268.59z
			 M228.302,260.197l-0.839-0.839c-0.839-2.518-2.518-4.197-3.357-6.715c0-0.839-0.839-1.679-0.839-2.518
			c-0.839-1.679-1.679-4.197-1.679-5.875c0-0.839,0-1.679-0.839-1.679c-0.839-2.518-0.839-5.036-1.679-7.554
			c0-0.839,0-1.679,0-1.679c0-2.518-0.839-5.875-0.839-8.393v-15.108h22.662l20.144,50.361H228.302z M279.502,260.197
			l-20.144-50.361h15.108l20.144,50.361H279.502z M327.344,260.197h-14.269l-20.144-50.361h34.413V260.197z M436.459,243.41h-16.787
			v-16.787h16.787V243.41z"/>
	</g>
</g>
</svg>