<?xml version="1.0" ?>
<svg viewBox="0 0 512 512" xmlns="http://www.w3.org/2000/svg" fill="currentColor" stroke="currentColor" stroke-width="8" stroke-linecap="round" stroke-linejoin="round">
    <path d="M182.582,486.528h-27.19V381.873c0-20.34,10.398-38.795,27.813-49.369c4.265-2.59,5.622-8.146,3.034-12.409s-8.143-5.624-12.409-3.034c-22.858,13.878-36.505,38.107-36.505,64.813v113.688c0,4.989,4.045,9.033,9.033,9.033h36.224c4.989,0,9.033-4.045,9.033-9.033C191.615,490.573,187.57,486.528,182.582,486.528z"/>
    <path d="M381.445,317.06c-4.265-2.59-9.82-1.231-12.409,3.034c-2.588,4.265-1.231,9.821,3.034,12.409c17.424,10.578,27.825,29.033,27.825,49.369v104.655H286.677V382.326l38.035,39.864c1.733,1.816,4.107,2.798,6.537,2.798c0.948,0,1.904-0.149,2.834-0.456c3.313-1.096,5.699-4.002,6.129-7.465l7.335-59.151c0.614-4.952-2.902-9.462-7.853-10.076c-4.953-0.613-9.462,2.903-10.076,7.853l-4.99,40.238l-40.443-42.387c-1.704-1.786-4.066-2.798-6.535-2.798s-4.83,1.011-6.535,2.797l-40.455,42.391l-4.991-40.241c-0.613-4.95-5.126-8.471-10.076-7.853c-4.952,0.614-8.467,5.125-7.853,10.076l7.335,59.151c0.429,3.463,2.815,6.369,6.128,7.465c3.313,1.095,6.962,0.184,9.371-2.34l38.035-39.855v104.192h-55.917c-4.989,0-9.033,4.045-9.033,9.033c0,4.989,4.045,9.033,9.033,9.033h196.236c4.989,0,9.033-4.045,9.033-9.033V381.873C417.962,355.172,404.311,330.942,381.445,317.06z"/>
    <path d="M417.161,156.673h-8.636l-3.222-33.34c-3.071-31.796-17.791-61.141-41.449-82.627C340.208,19.231,309.59,7.405,277.637,7.405c-31.947,0-62.567,11.828-86.218,33.304c-23.652,21.477-38.372,50.818-41.449,82.622l-3.222,33.34h-8.624c-4.989,0-9.033,4.045-9.033,9.033v47.877c0,4.989,4.045,9.033,9.033,9.033h5.831c0.196,26.944,11.144,52.541,30.821,71.383c0.389,0.375,0.777,0.749,1.166,1.11c12.401,27.613,40.143,46.901,72.323,46.901h58.757v0.001c32.179,0,59.922-19.289,72.323-46.903c0.388-0.361,0.776-0.735,1.142-1.088c19.698-18.883,30.645-44.482,30.844-71.405h5.832c4.989,0,9.033-4.045,9.033-9.033v-47.877C426.194,160.717,422.15,156.673,417.161,156.673z M277.637,25.472c23.636-0.001,46.412,7.549,65.256,21.419c-18.84,13.866-41.639,21.412-65.256,21.412s-46.415-7.545-65.255-21.409C231.229,33.022,254.005,25.472,277.637,25.472z M147.157,174.738h21.852v29.81h-21.852V174.738z M169.011,254.979c-4.483-10.104-6.869-21.089-6.973-32.364h6.973V254.979z M368.207,262.757c0,33.738-27.448,61.188-61.187,61.188h-58.757c-33.738,0-61.186-27.45-61.186-61.188V145.744c0-17.102,13.914-31.016,31.016-31.016h119.099c17.102,0,31.016,13.914,31.016,31.016V262.757z M337.194,96.661H218.095c-27.064,0-49.083,22.019-49.083,49.083v10.929h-4.111l3.052-31.602c2.416-24.973,13.209-48.163,30.558-66.057c22.521,17.679,50.293,27.356,79.125,27.356c28.832,0,56.606-9.677,79.127-27.357c17.353,17.902,28.146,41.091,30.557,66.057l3.055,31.604h-4.099v-10.929C386.276,118.679,364.258,96.661,337.194,96.661z M386.275,254.956v-32.341h6.971C393.142,233.876,390.757,244.852,386.275,254.956z M408.128,204.549h-21.852v-29.81h21.852V204.549z"/>
    <path d="M119.95,467.914H96.305c-7.218,0-13.091-5.873-13.091-13.091v-30.269h12.948c4.989,0,9.033-4.045,9.033-9.033V286.644c0-4.989-4.045-9.033-9.033-9.033H84.118v-78.892c0-2.396-0.952-4.694-2.646-6.387l-24.541-24.541c-3.528-3.528-9.248-3.528-12.774,0c-3.528,3.528-3.528,9.247,0,12.774l21.895,21.895v75.149H54.006c-4.989,0-9.033,4.045-9.033,9.033V415.52c0,4.989,4.045,9.033,9.033,9.033h11.141v30.269c0,17.18,13.978,31.158,31.158,31.158h23.645c4.989,0,9.033-4.045,9.033-9.033S124.939,467.914,119.95,467.914z M63.04,406.487v-110.81h24.089v110.81H63.04z"/>
    <path d="M24.159,167.791c-3.527-3.528-9.247-3.528-12.774,0l-8.738,8.738c-3.528,3.528-3.528,9.247,0,12.774c1.763,1.765,4.076,2.646,6.387,2.646s4.624-0.882,6.387-2.646l8.738-8.738C27.686,177.038,27.686,171.319,24.159,167.791z"/>
    <path d="M65.67,126.28c-3.527-3.528-9.247-3.528-12.774,0l-8.74,8.74c-3.528,3.528-3.528,9.248,0,12.776c1.763,1.765,4.075,2.646,6.387,2.646c2.311,0,4.624-0.882,6.387-2.646l8.74-8.74C69.198,135.527,69.198,129.807,65.67,126.28z"/>
    <path d="M24.159,135.02l-8.738-8.74c-3.528-3.528-9.248-3.527-12.774,0c-3.528,3.528-3.528,9.248,0,12.776l8.738,8.74c1.763,1.765,4.076,2.646,6.387,2.646s4.624-0.882,6.387-2.646C27.686,144.268,27.686,138.548,24.159,135.02z"/>
    <path d="M478.275,259.228v-25.58c0-4.989-4.045-9.033-9.033-9.033h-32.52c-4.989,0-9.033,4.045-9.033,9.033v25.58c-19.92,9.49-33.725,29.816-33.725,53.312c0,4.989,4.045,9.033,9.033,9.033s9.033-4.045,9.033-9.033c0-22.581,18.37-40.951,40.951-40.951c22.581,0,40.951,18.37,40.951,40.951v29.91c0,4.989,4.045,9.033,9.033,9.033S512,347.439,512,342.45v-29.91C512,289.045,498.195,268.718,478.275,259.228z M460.208,253.981c-2.37-0.291-4.779-0.459-7.227-0.459c-2.447,0-4.856,0.167-7.227,0.459v-11.299h14.453V253.981z"/>
    <path d="M502.966,363.528c-4.989,0-9.033,4.045-9.033,9.033v113.967h-58.416c-4.989,0-9.033,4.045-9.033,9.033s4.045,9.033,9.033,9.033h67.449c4.989,0,9.033-4.045,9.033-9.033v-123C512,367.573,507.955,363.528,502.966,363.528z"/>
    <path d="M338.484,156.761h-16.586c-4.989,0-9.033,4.045-9.033,9.033s4.045,9.033,9.033,9.033h7.553v20.471H225.826v-20.471h69.572c4.989,0,9.033-4.045,9.033-9.033s-4.045-9.033-9.033-9.033h-78.605c-4.989,0-9.033,4.045-9.033,9.033v38.538c0,4.989,4.045,9.033,9.033,9.033h121.691c4.99,0,9.033-4.045,9.033-9.033v-38.538C347.517,160.805,343.473,156.761,338.484,156.761z"/>
</svg>
