<?xml version="1.0" ?>
<svg viewBox="0 0 512 512" xmlns="http://www.w3.org/2000/svg" fill="currentColor" stroke="currentColor" stroke-width="4" stroke-linecap="round" stroke-linejoin="round">
    <path d="M227.148 356.8c-1.5,0 -3.1004,-0.600002 -4.20001,-1.80001l-68.2998 -68.2998c-1.09961,-1.09961 -1.80001,-2.70001 -1.80001,-4.20001 0,-1.6004 0.600002,-3.1004 1.80001,-4.20001l262.299 -262.5c10.2,-10.2 23.8997,-15.7997 38.4001,-15.7997 14.5004,0 28.2001,5.59962 38.4001,15.7997 21.1997,21.1997 21.1997,55.6006 0,76.8002l-262.399 262.399c-1.2,1.2 -2.70001,1.80001 -4.20001,1.80001zm-59.8998 -74.2998l59.8006 59.8006 258.198 -258.2c16.5001,-16.5001 16.5001,-43.3005 0,-59.8006 -7.99963,-7.99963 -18.6001,-12.3 -29.8997,-12.3 -11.2996,0 -22.0005,4.39962 -29.8997,12.3l-258.199 258.2z"/>
    <path d="M213.548 343.2c-1.5,0 -3.1004,-0.600002 -4.20001,-1.80001l-41.1001 -41.1001c-1.09961,-1.09961 -1.80001,-2.70001 -1.80001,-4.20001 0,-1.6004 0.600002,-3.1004 1.80001,-4.20001l262.3 -262.498c13.6996,-13.6996 35.8997,-13.6996 49.6005,0 13.6996,13.6996 13.6996,35.8997 0,49.6005l-262.4 262.398c-1.2,1.2 -2.70001,1.80001 -4.20001,1.80001zm-32.6989 -47.1001l32.5997 32.5997 258.198 -258.099c9.00003,-9.00003 9.00003,-23.5997 0,-32.5997 -9.00003,-9.00003 -23.5997,-9.00003 -32.5997,0l-258.198 258.099z"/>
    <path d="M198.748 248.501c-1.5,0 -3.1004,-0.600002 -4.20001,-1.80001l-16.6004 -16.6004c-2.29961,-2.29961 -2.29961,-6.10041 0,-8.50042 2.29961,-2.29961 6.10041,-2.29961 8.50042,0l16.6004 16.6004c2.29961,2.29961 2.29961,6.10041 0,8.50042 -1.20118,1.2 -2.70119,1.80001 -4.30041,1.80001z"/>
    <path d="M222.848 224.401c-1.5,0 -3.1004,-0.600002 -4.20001,-1.80001l-16.6997 -16.5001c-2.29961,-2.29961 -2.29961,-6.10041 0,-8.50042 2.29961,-2.29961 6.10041,-2.29961 8.50042,0l16.6004 16.6004c2.29961,2.29961 2.29961,6.10041 0,8.50042 -1.10079,1.2 -2.70119,1.69961 -4.20119,1.69961z"/>
    <path d="M246.948 200.401c-1.5,0 -3.1004,-0.600002 -4.20001,-1.80001l-16.6997 -16.5993c-2.29961,-2.29961 -2.29961,-6.10041 0,-8.50042 2.29961,-2.29961 6.10041,-2.29961 8.50042,0l16.6004 16.6004c2.29961,2.29961 2.29961,6.10041 0,8.50042 -1.20118,1.19882 -2.70119,1.79882 -4.20119,1.79882z"/>
    <path d="M270.947 176.301c-1.5,0 -3.1004,-0.600002 -4.20001,-1.80001l-16.5993 -16.6004c-2.29961,-2.29961 -2.29961,-6.10041 0,-8.50042 2.29961,-2.29961 6.09923,-2.29961 8.49924,0l16.6004 16.6004c2.29961,2.29961 2.29961,6.10041 0,8.50042 -1.2,1.2 -2.70001,1.80001 -4.30041,1.80001z"/>
    <path d="M295.047 152.201c-1.5,0 -3.1004,-0.600002 -4.20001,-1.80001l-16.6004 -16.6004c-2.29961,-2.29961 -2.29961,-6.10041 0,-8.50042 2.29961,-2.29961 6.10041,-2.29961 8.50042,0l16.6004 16.6004c2.29961,2.29961 2.29961,6.10041 0,8.50042 -1.20118,1.3004 -2.8004,1.80001 -4.30041,1.80001z"/>
    <path d="M319.147 128.201c-1.5,0 -3.1004,-0.600002 -4.20001,-1.80001l-16.6004 -16.6004c-2.29961,-2.29961 -2.29961,-6.10041 0,-8.50042 2.29961,-2.29961 6.10041,-2.29961 8.50042,0l16.6004 16.6004c2.29961,2.29961 2.29961,6.10041 0,8.50042 -1.3004,1.2 -2.8004,1.80001 -4.30041,1.80001z"/>
    <path d="M343.147 104.102c-1.5,0 -3.1004,-0.600002 -4.20001,-1.80001l-16.6004 -16.6004c-2.29961,-2.29961 -2.29961,-6.10041 0,-8.50042 2.29961,-2.29961 6.10041,-2.29961 8.50042,0l16.6004 16.6004c2.29961,2.29961 2.29961,6.10041 0,8.50042 -1.2,1.2 -2.70001,1.80001 -4.30041,1.80001z"/>
    <path d="M367.247 80.1014c-1.5,0 -3.1004,-0.600002 -4.20001,-1.80001l-16.6004 -16.6004c-2.29961,-2.29961 -2.29961,-6.10041 0,-8.50042 2.29961,-2.29961 6.10041,-2.29961 8.50042,0l16.6004 16.6004c2.29961,2.29961 2.29961,6.10041 0,8.50042 -1.20118,1.2 -2.8004,1.80001 -4.30041,1.80001z"/>
    <path d="M391.247 56.001c-1.5,0 -3.1004,-0.600002 -4.20001,-1.80001l-16.6004 -16.6004c-2.29961,-2.29961 -2.29961,-6.10041 0,-8.50042 2.29961,-2.29961 6.10041,-2.29961 8.50042,0l16.6004 16.6004c2.29961,2.29961 2.29961,6.10041 0,8.50042 -1.20118,1.2 -2.70119,1.80001 -4.30041,1.80001z"/>
    <path d="M283.747 333.4c-1.5,0 -3.1004,-0.600002 -4.20001,-1.80001l-16.6997 -16.6004c-2.29961,-2.29961 -2.29961,-6.10041 0,-8.50042 2.29961,-2.29961 6.10041,-2.29961 8.50042,0l16.6004 16.6004c2.29961,2.29961 2.29961,6.10041 0,8.50042 -1.20118,1.2 -2.70119,1.80001 -4.20119,1.80001z"/>
    <path d="M307.747 309.4c-1.5,0 -3.1004,-0.600002 -4.20001,-1.80001l-16.5993 -16.6004c-2.29961,-2.29961 -2.29961,-6.10041 0,-8.50042 2.29961,-2.29961 6.10041,-2.29961 8.50042,0l16.6004 16.6004c2.29961,2.29961 2.29961,6.10041 0,8.50042 -1.20118,1.2 -2.70119,1.80001 -4.30159,1.80001z"/>
    <path d="M331.847 285.3c-1.5,0 -3.1004,-0.600002 -4.20001,-1.80001l-16.6997 -16.5993c-2.29961,-2.29961 -2.29961,-6.10041 0,-8.50042 2.29961,-2.29961 6.10041,-2.29961 8.50042,0l16.6004 16.6004c2.29961,2.29961 2.29961,6.10041 0,8.50042 -1.10197,1.19882 -2.70119,1.79882 -4.20119,1.79882z"/>
    <path d="M355.946 261.2c-1.5,0 -3.1004,-0.600002 -4.20001,-1.80001l-16.6004 -16.5993c-2.29961,-2.29961 -2.29961,-6.10041 0,-8.50042 2.29961,-2.29961 6.10041,-2.29961 8.50042,0l16.6004 16.6004c2.29961,2.29961 2.29961,6.09923 0,8.49924 -1.3004,1.29922 -2.8004,1.80001 -4.30041,1.80001z"/>
    <path d="M379.946 237.202c-1.5,0 -3.1004,-0.600002 -4.20001,-1.80001l-16.6004 -16.6004c-2.29961,-2.29961 -2.29961,-6.10041 0,-8.50042 2.29961,-2.29961 6.10041,-2.29961 8.50042,0l16.6004 16.6004c2.29961,2.29961 2.29961,6.10041 0,8.50042 -1.2,1.2 -2.70001,1.80001 -4.30041,1.80001z"/>
    <path d="M404.047 213.101c-1.5,0 -3.1004,-0.600002 -4.20001,-1.80001l-16.6004 -16.6004c-2.29961,-2.29961 -2.29961,-6.10041 0,-8.50042 2.29961,-2.29961 6.10041,-2.29961 8.50042,0l16.6004 16.6004c2.29961,2.29961 2.29961,6.10041 0,8.50042 -1.2,1.2 -2.8004,1.80001 -4.30041,1.80001z"/>
    <path d="M428.047 189.101c-1.5,0 -3.1004,-0.600002 -4.20001,-1.80001l-16.6004 -16.6004c-2.29961,-2.29961 -2.29961,-6.10041 0,-8.50042 2.29961,-2.29961 6.10041,-2.29961 8.50042,0l16.6004 16.6004c2.29961,2.29961 2.29961,6.10041 0,8.50042 -1.2,1.2 -2.70001,1.80001 -4.30041,1.80001z"/>
    <path d="M452.146 165.002c-1.5,0 -3.1004,-0.600002 -4.20001,-1.80001l-16.6004 -16.6004c-2.29961,-2.29961 -2.29961,-6.10041 0,-8.50042 2.29961,-2.29961 6.10041,-2.29961 8.50042,0l16.6004 16.6004c2.29961,2.29961 2.29961,6.10041 0,8.50042 -1.2,1.2 -2.8004,1.80001 -4.30041,1.80001z"/>
    <path d="M476.247 140.901c-1.5,0 -3.1004,-0.600002 -4.20001,-1.80001l-16.6004 -16.6004c-2.29961,-2.29961 -2.29961,-6.10041 0,-8.50042 2.29961,-2.29961 6.10041,-2.29961 8.50042,0l16.6004 16.6004c2.29961,2.29961 2.29961,6.10041 0,8.50042 -1.3004,1.2 -2.8004,1.80001 -4.30041,1.80001z"/>
    <path d="M101.448 512c-4.80001,0 -9.40042,-1.9004 -12.7996,-5.29962l-73.2994 -73.2994c-6.70041,-6.70041 -6.90002,-17.2997 -0.400395,-25.0997l113.4 -138.3c0,0 0,0 0,0 2.89962,-3.49962 7.09963,-5.59962 11.8996,-5.89962 5.20041,-0.300001 10.3996,1.69961 14.1,5.40002l85.8003 85.8003c3.4004,3.4004 5.29962,7.99963 5.29962,12.7996 0,4.80001 -1.9004,9.40042 -5.29962,12.7996l-125.9 125.8c-3.4004,3.39922 -8.00081,5.29962 -12.8008,5.29962zm36.2009 -234.4l-113.4 138.3c-2.10001,2.5004 -3.1004,6.40041 -0.400395,9.10042l73.2994 73.2994c1.09961,1.09961 2.70001,1.80001 4.30041,1.80001 1.6004,0 3.19962,-0.600002 4.30041,-1.80001l125.9 -125.9c1.09961,-1.09961 1.80001,-2.70001 1.80001,-4.30041 0,-1.6004 -0.600002,-3.19962 -1.80001,-4.30041l-85.8003 -85.7991c-1.3004,-1.3004 -3.19962,-1.99961 -4.99962,-1.9004 -1.0004,0 -2.29961,0.300001 -3.19962,1.5l0 0z"/>
    <path d="M43.5486 388.8c-1.6004,0 -3.1004,-0.600002 -4.20001,-1.80001l-31.9997 -31.9997c-6.40041,-6.40041 -6.70041,-16.6997 -0.600002,-24.9001l38.1001 -51.4998c0,0 0,0 0,0 2.70001,-3.60001 6.79963,-5.80041 11.5004,-6.19963 5.40002,-0.400395 10.9004,1.69961 14.7,5.50041l32.5997 32.5997c2.2004,2.2004 2.40001,5.70002 0.400395,7.99963l-55.8002 67.9998c-1.09961,1.3004 -2.70001,2.10001 -4.30041,2.2004 -0.200788,0.0992129 -0.301182,0.0992129 -0.400395,0.0992129zm10.9996 -103l-38.1001 51.4998c-1.9004,2.59961 -3.30001,6.60002 -0.600002,9.30003l27.3001 27.3001 48.1005 -58.6998 -28.6997 -28.6997c-1.39961,-1.39961 -3.4004,-2.10001 -5.29962,-1.99961 -1.20118,-0.00118111 -2.20158,0.498427 -2.70119,1.29922z"/>
    <path d="M105.148 471c-7.69963,0 -15.4997,-2.89962 -21.3001,-8.80042l-23.8997 -23.8997c-11.8004,-11.8004 -11.8004,-30.9001 0,-42.7005l11.8004 -11.8004c3.4004,-3.4004 7.99963,-5.29962 12.7996,-5.29962 4.80001,0 9.40042,1.9004 12.7996,5.29962l40.9997 40.9997c7.09963,7.09963 7.09963,18.4997 0,25.6005l-11.8004 11.8004c-5.99884,5.89962 -13.6996,8.80042 -21.3993,8.80042zm-20.7001 -80.4002c-1.6004,0 -3.19962,0.600002 -4.30041,1.80001l0 0 -11.8004 11.8004c-7.09963,7.09963 -7.09963,18.6001 0,25.6997l23.8997 23.8997c7.09963,7.09963 18.6001,7.09963 25.6997,0l11.8004 -11.8004c2.40001,-2.40001 2.40001,-6.19963 0,-8.59963l-40.9997 -40.9997c-1.19882,-1.2 -2.69883,-1.80001 -4.29923,-1.80001zm-8.59963 -2.5004l0 0 0 0z"/>
    <path d="M167.349 414.1c-1.5,0 -3.1004,-0.600002 -4.20001,-1.80001 -2.29961,-2.29961 -2.29961,-6.10041 0,-8.50042l40.0997 -40.0997c2.29961,-2.29961 6.10041,-2.29961 8.50042,0 2.29961,2.29961 2.29961,6.10041 0,8.50042l-40.0997 40.0997c-1.20118,1.29922 -2.8004,1.80001 -4.30041,1.80001z"/>
    <path d="M151.348 398.1c-1.5,0 -3.1004,-0.600002 -4.20001,-1.80001 -2.29961,-2.29961 -2.29961,-6.10041 0,-8.50042l40.0997 -40.0997c2.29961,-2.29961 6.10041,-2.29961 8.50042,0 2.29961,2.29961 2.29961,6.10041 0,8.50042l-40.0997 40.0997c-1.3004,1.2 -2.8004,1.80001 -4.30041,1.80001z"/>
    <path d="M135.248 382.1c-1.5,0 -3.1004,-0.600002 -4.20001,-1.80001 -2.29961,-2.29961 -2.29961,-6.10041 0,-8.50042l40.0997 -40.0997c2.29961,-2.29961 6.10041,-2.29961 8.50042,0 2.29961,2.29961 2.29961,6.10041 0,8.50042l-40.0997 40.0997c-1.20118,1.2 -2.70119,1.80001 -4.30041,1.80001z"/>
</svg>
