<?xml version="1.0" ?>
<svg data-name="Layer 1" id="Layer_1" viewBox="0 0 100 100" xmlns="http://www.w3.org/2000/svg" fill="currentColor" stroke="currentColor" stroke-width="4" stroke-linecap="round" stroke-linejoin="round">
    <path d="M54.33,33.15a.46.46,0,0,1-.22-.06l-2-1A.24.24,0,0,1,52,32L50.69,30.9a.5.5,0,1,1,.65-.76l1.26,1.07,2,1a.5.5,0,0,1,.22.67A.49.49,0,0,1,54.33,33.15Z"/>
    <path d="M42.65,29a.45.45,0,0,1-.34-.14.48.48,0,0,1,0-.69l.39.32.35.35h0A.51.51,0,0,1,42.65,29Z"/>
    <path d="M45.13,21.18h0a.5.5,0,0,1-.47-.53c0-.52,0-1.06,0-1.63s0-1.07,0-1.58a.5.5,0,0,1,.47-.53.51.51,0,0,1,.53.47c0,.53,0,1.08,0,1.64s0,1.15,0,1.69A.5.5,0,0,1,45.13,21.18Z"/>
    <path d="M44.8,15.05a.49.49,0,0,1-.49-.41,14.42,14.42,0,0,0-.86-3,.5.5,0,1,1,.92-.4,16.16,16.16,0,0,1,.92,3.19.5.5,0,0,1-.4.58Z"/>
    <path d="M43.82,27.31a.54.54,0,0,1-.22,0,.5.5,0,0,1-.24-.66,12.13,12.13,0,0,0,.88-2.93.5.5,0,0,1,1,.18,13.39,13.39,0,0,1-1,3.17A.51.51,0,0,1,43.82,27.31Z"/>
    <path d="M43.69,29.45a2.1,2.1,0,0,1-1.4-.59.49.49,0,0,1,0-.7.51.51,0,0,1,.71-.05,1.11,1.11,0,0,0,.74.34,1.34,1.34,0,0,0,.89-.48c.89-.92,1.63-3,2-5.58A25,25,0,0,0,46.77,19a24,24,0,0,0-.24-3.46c-.34-2.52-1.07-4.56-2-5.48a1.34,1.34,0,0,0-.89-.48,1.4,1.4,0,0,0-.92.51.5.5,0,0,1-.7,0,.5.5,0,0,1,0-.71,2.08,2.08,0,0,1,3.27,0c1,1.08,1.84,3.27,2.21,6A24.75,24.75,0,0,1,47.77,19a26.57,26.57,0,0,1-.23,3.49c-.38,2.83-1.19,5.07-2.24,6.15A2.26,2.26,0,0,1,43.69,29.45Z"/>
    <path d="M47,23a.49.49,0,0,1-.5-.49h0a.5.5,0,1,1,1,0A.5.5,0,0,1,47,23Z"/>
    <path d="M47,16a.49.49,0,0,1-.5-.49h0a.5.5,0,0,1,1,0A.5.5,0,0,1,47,16Z"/>
    <path d="M49.37,31a.5.5,0,0,1-.14-1c1.62-.47,3.37-4.84,3.37-11.08,0-6.46-1.91-11-3.63-11.11a.53.53,0,0,1-.51-.51.47.47,0,0,1,.47-.49c2.7.11,4.67,5.31,4.67,12.11,0,6.29-1.72,11.35-4.09,12Z"/>
    <path d="M51,31a.5.5,0,0,1-.5-.5A.5.5,0,0,1,51,30c1.73,0,3.67-4.57,3.67-11.12S52.75,7.79,51,7.79a.5.5,0,0,1-.5-.5.5.5,0,0,1,.5-.5c3,0,4.67,6.24,4.67,12.11S54.05,31,51,31Z"/>
    <path d="M43.7,9.61a.5.5,0,0,1-.23-.95L45,7.89a11.22,11.22,0,0,1,6-1.1.5.5,0,0,1-.09,1,10.23,10.23,0,0,0-5.5,1l-1.55.76A.46.46,0,0,1,43.7,9.61Z"/>
    <path d="M50.78,31a17.24,17.24,0,0,1-7-1.48l-.32-.14a.5.5,0,0,1-.25-.66.49.49,0,0,1,.66-.25l.31.14A16.4,16.4,0,0,0,51,30a.53.53,0,0,1,.51.49A.51.51,0,0,1,51,31Z"/>
    <path d="M30.84,12.11a.51.51,0,0,1-.48-.36.5.5,0,0,1,.35-.62l.26-.07A48.5,48.5,0,0,1,45,9.24a.5.5,0,0,1,.49.51.48.48,0,0,1-.51.49A47.63,47.63,0,0,0,31.24,12l-.26.07Z"/>
    <path d="M40.22,29.05a46.92,46.92,0,0,1-9-.87l-.47-.09a.5.5,0,1,1,.19-1l.48.09a46.11,46.11,0,0,0,13.47.61.5.5,0,0,1,.1,1A47.61,47.61,0,0,1,40.22,29.05Z"/>
    <path d="M29.74,25.92c-.54,0-1.33-.3-2-1.71a.5.5,0,0,1,.91-.42c.34.72.74,1.13,1.09,1.13.77,0,1.85-2,1.85-5.31s-1.08-5.31-1.85-5.31c-.36,0-.75.4-1.08,1.12a.49.49,0,0,1-.66.24.51.51,0,0,1-.25-.66c.65-1.41,1.44-1.7,2-1.7,1.85,0,2.85,3.25,2.85,6.31S31.59,25.92,29.74,25.92Z"/>
    <path d="M28.14,24.51c-1.13,0-2-1.46-2.24-3.71a.5.5,0,0,1,1-.11c.19,1.81.81,2.78,1.2,2.82h0c.52,0,1.26-1.58,1.26-3.89s-.75-3.85-1.26-3.91h0c-.42.05-1.06,1.09-1.23,2.94a.49.49,0,0,1-.54.45.5.5,0,0,1-.46-.54c.21-2.3,1.11-3.85,2.23-3.85h.14c1.41.15,2.15,2.58,2.15,4.9s-.74,4.73-2.14,4.89Z"/>
    <path d="M30.85,28.1c-1.36,0-2.52-1.44-3.19-4a.5.5,0,0,1,.36-.61.5.5,0,0,1,.61.35c.52,2,1.39,3.22,2.22,3.22,1.29,0,2.73-3.08,2.73-7.49s-1.44-7.5-2.73-7.5c-.83,0-1.7,1.26-2.22,3.21a.5.5,0,1,1-1-.25c.67-2.52,1.83-4,3.19-4,2.13,0,3.73,3.65,3.73,8.5S33,28.1,30.85,28.1Z"/>
    <path d="M76,42.7a.5.5,0,0,1-.49-.43A10.16,10.16,0,0,1,76,37.41a.49.49,0,0,1,.64-.3.5.5,0,0,1,.3.64,9.06,9.06,0,0,0-.46,4.38.5.5,0,0,1-.43.56Z"/>
    <path d="M76.88,65.66h0a.51.51,0,0,1-.45-.55l.54-5.47a34.8,34.8,0,0,0-.17-8.09l-1-7.08a.51.51,0,0,1,.43-.57.49.49,0,0,1,.56.43l1,7.09a35.05,35.05,0,0,1,.17,8.31l-.53,5.48A.5.5,0,0,1,76.88,65.66Z"/>
    <path d="M53.53,95.55a4.76,4.76,0,0,1-2.79-.9c-4.8-3.49-4.92-3.94-5-4.22-.13-.46-.45-6.66-.69-11.78a8.11,8.11,0,0,1,6.4-8.36l8.43-1.83A3.59,3.59,0,0,0,62.73,65c0-.26,0-.5,0-.75a31.71,31.71,0,0,0-.78-7l-.87-3.93a28.28,28.28,0,0,1-.69-6.21,3.49,3.49,0,0,0-1.74-3l-4.5-2.57c-1.16-.54-2.16-1-2-2.09L53,35.06a3.42,3.42,0,0,0-1-3,.52.52,0,0,1-.07-.71.5.5,0,0,1,.7-.07,4.41,4.41,0,0,1,1.31,4l-.76,4.38c0,.29.29.49,1.41,1l.44.21,4.13,2.4A4.46,4.46,0,0,1,61.4,47.1a27.64,27.64,0,0,0,.66,6L62.94,57a33.17,33.17,0,0,1,.8,7.26c0,.26,0,.52,0,.79a4.6,4.6,0,0,1-3.63,4.37l-8.43,1.82a7.11,7.11,0,0,0-5.61,7.34c.31,6.63.57,11.17.66,11.58,0,0,.51.69,4.6,3.66a3.86,3.86,0,0,0,2.76.67l20.76-3a5.94,5.94,0,0,0,4.92-4.44L82,77.87a4.35,4.35,0,0,0,.13-1,4.25,4.25,0,0,0-1-2.68,12.36,12.36,0,0,1-2.72-9L79,59.64a34.26,34.26,0,0,0-.16-8.09l-1.3-9.28a10.17,10.17,0,0,1,5.57-10.52l6.54-3.23a5.71,5.71,0,0,0,3-3.69l.63-2.48a21.51,21.51,0,0,0,.65-5.19,21.11,21.11,0,0,0-1.36-7.44,5.9,5.9,0,0,0-5.88-3.83L51,7.79a.5.5,0,0,1-.52-.48A.49.49,0,0,1,51,6.79l35.64-1.9A6.93,6.93,0,0,1,93.5,9.36a22.09,22.09,0,0,1,.74,13.23l-.63,2.48a6.68,6.68,0,0,1-3.52,4.35l-6.54,3.23a9.18,9.18,0,0,0-5,9.48l1.3,9.29A35.59,35.59,0,0,1,80,59.73l-.53,5.48A11.53,11.53,0,0,0,82,73.52a5.21,5.21,0,0,1,1.19,3.31A5.14,5.14,0,0,1,83,78.1l-2.26,9.19A6.92,6.92,0,0,1,75,92.48l-20.76,3A5.34,5.34,0,0,1,53.53,95.55Z"/>
    <path d="M54.54,41.66h-.1a.51.51,0,0,1-.39-.59l1-5A2.93,2.93,0,0,0,54,33a.5.5,0,1,1,.65-.76,3.93,3.93,0,0,1,1.37,4l-1,5A.49.49,0,0,1,54.54,41.66Z"/>
    <path d="M59.13,44.17a1.32,1.32,0,0,1-.34,0,.5.5,0,1,1,.25-1,.37.37,0,0,0,.29,0,.35.35,0,0,0,.17-.24l1-5.44c.22-1.11.22-1.11-.49-1.6l-.37-.27a23.63,23.63,0,0,0-5.4-2.41l.09-.5.18-.47-.18.47.26-.44c2.92,1.09,4.38,1.64,5.63,2.54l.36.26c1.05.73,1.22,1,.9,2.61l-1,5.44a1.38,1.38,0,0,1-.62.9A1.35,1.35,0,0,1,59.13,44.17Z"/>
    <path d="M63.11,91.78a.5.5,0,0,1-.09-1l11-1.87a3.87,3.87,0,0,0,3.15-3.12l1.18-6.43a4.92,4.92,0,0,0-1.43-4.43l-.35-.34A3,3,0,0,0,74,73.8l-16.8,2.71A7,7,0,0,0,51.38,84l.46,5.26a.51.51,0,0,1-.46.54.5.5,0,0,1-.54-.46l-.46-5.25a8,8,0,0,1,6.69-8.58l16.8-2.72a4,4,0,0,1,3.4,1.07l.36.34a5.91,5.91,0,0,1,1.71,5.33L78.17,86a4.9,4.9,0,0,1-4,3.93l-11,1.86Z"/>
    <path d="M73.45,23.7a1.54,1.54,0,0,1-.12-3.08l16.09-1.24a1.54,1.54,0,1,1,.24,3.08Zm16.09-3.33h0L73.41,21.62a.53.53,0,0,0-.5.58.54.54,0,0,0,.54.5v.5l0-.5,16.09-1.24a.55.55,0,0,0,0-1.09Z"/>
    <path d="M73.37,19.53a1.54,1.54,0,0,1-.12-3.08l16.1-1.24A1.56,1.56,0,0,1,91,16.63a1.54,1.54,0,0,1-1.42,1.65ZM89.46,16.2h0L73.33,17.45a.54.54,0,0,0,0,1.08V19l0-.5,16.09-1.24a.58.58,0,0,0,.37-.19.57.57,0,0,0,.13-.4A.55.55,0,0,0,89.46,16.2Z"/>
    <path d="M73.3,15.36a1.56,1.56,0,0,1-1.54-1.43,1.54,1.54,0,0,1,1.42-1.65L89.27,11a1.54,1.54,0,0,1,.24,3.08ZM89.39,12h0L73.26,13.27a.55.55,0,0,0,0,1.09v.5l0-.5,16.09-1.25a.53.53,0,0,0,.5-.58A.54.54,0,0,0,89.39,12Z"/>
    <path d="M43.82,27.31H38.1a2.25,2.25,0,0,1-2.42-2,2.25,2.25,0,0,1,2.42-2h6.63a.5.5,0,0,1,0,1H38.1c-.77,0-1.42.47-1.42,1s.65,1,1.42,1h5.72a.5.5,0,0,1,.5.5A.51.51,0,0,1,43.82,27.31Z"/>
    <path d="M39.16,21.42a2.37,2.37,0,0,1-2.52-2,2,2,0,0,1,.55-1.46,2.47,2.47,0,0,1,1.75-.77l6.17-.25a.5.5,0,0,1,0,1L39,18.16a1.47,1.47,0,0,0-1,.45,1,1,0,0,0-.28.73,1.35,1.35,0,0,0,1.43,1.08l6-.24a.5.5,0,0,1,.52.48.5.5,0,0,1-.48.52l-6,.24Z"/>
    <path d="M38,15.62a2.28,2.28,0,0,1-2.37-1.85,1.82,1.82,0,0,1,.4-1.38,2.54,2.54,0,0,1,1.74-.9L43.87,11a.5.5,0,0,1,.54.46A.51.51,0,0,1,44,12l-6.08.52a1.5,1.5,0,0,0-1,.52.84.84,0,0,0-.2.64,1.31,1.31,0,0,0,1.38,1h.15l6.59-.57a.5.5,0,0,1,.09,1l-6.57.56Z"/>
    <path d="M7,22.23A1.55,1.55,0,0,1,7,19.14l20-1.08a1.57,1.57,0,0,1,1.11.4,1.49,1.49,0,0,1,.51,1.06,1.55,1.55,0,0,1-1.46,1.63Zm20-3.17h0L7,20.14a.55.55,0,0,0,0,1.09v.5l0-.5,20-1.08a.54.54,0,0,0,.51-.57.51.51,0,0,0-.18-.38A.54.54,0,0,0,27.08,19.06Z"/>
    <rect height="4" transform="translate(-7.02 22.83) rotate(-45.32)" width="5" x="22.29" y="18.32"/>
    <rect height="4" transform="translate(-8.07 20.66) rotate(-45.32)" width="5" x="19.16" y="18.5"/>
    <rect height="4" transform="translate(-9.19 18.52) rotate(-45.32)" width="5" x="16.03" y="18.77"/>
    <rect height="4" transform="translate(-10.12 16.29) rotate(-45.32)" width="5" x="12.9" y="18.77"/>
    <rect height="4" transform="translate(-11.16 14.11) rotate(-45.32)" width="5" x="9.77" y="18.93"/>
    <rect height="4" transform="translate(-12.23 11.94) rotate(-45.32)" width="5" x="6.64" y="19.12"/>
</svg>
